PathFileType	4	(X/Y/Z)	C:/Users/opensim2020/Desktop/walking_exp_matlab/subject06_walking11_run.trc																																																																																																																																								
DataRate	CameraRate	NumFrames	NumMarkers	Units	OrigDataRate	OrigDataStartFrame	OrigNumFrames																																																																																																																																				
100	100	8	46	mm	100	278	106																																																																																																																																				
Frame#	Time	LKNE			RKNE			RFRM			RWRA			RWRB			RELB			RUPA			RSHO			LWRA			RFIN			RFHD			CLAV			RASI			RTHI			LSHO			LTHI			RBHD			C7			LTIB			LANK			LTOE			LBHD			RTIB			RBAK			LHEE			RANK			STRN			RHEE			RTOE			T10			LUPA			LFHD			LPSI			RPSI			LASI			LFRM			LWRB			LFIN			LELB			*39			*40			*41			*42			*43			*44			*45		
		X1	Y1	Z1	X2	Y2	Z2	X3	Y3	Z3	X4	Y4	Z4	X5	Y5	Z5	X6	Y6	Z6	X7	Y7	Z7	X8	Y8	Z8	X9	Y9	Z9	X10	Y10	Z10	X11	Y11	Z11	X12	Y12	Z12	X13	Y13	Z13	X14	Y14	Z14	X15	Y15	Z15	X16	Y16	Z16	X17	Y17	Z17	X18	Y18	Z18	X19	Y19	Z19	X20	Y20	Z20	X21	Y21	Z21	X22	Y22	Z22	X23	Y23	Z23	X24	Y24	Z24	X25	Y25	Z25	X26	Y26	Z26	X27	Y27	Z27	X28	Y28	Z28	X29	Y29	Z29	X30	Y30	Z30	X31	Y31	Z31	X32	Y32	Z32	X33	Y33	Z33	X34	Y34	Z34	X35	Y35	Z35	X36	Y36	Z36	X37	Y37	Z37	X38	Y38	Z38	X39	Y39	Z39	X40	Y40	Z40	X41	Y41	Z41	X42	Y42	Z42	X43	Y43	Z43	X44	Y44	Z44	X45	Y45	Z45	X46	Y46	Z46
																																																																																																																																											
93	0.92	1921.63867	523.66205	63.0438	1671.62573	475.67334	298.74518	1808.1178	1084.17944	425.34555	1874.18054	1157.23901	324.22855	1903.7533	1098.60303	337.33743	1728.13306	1099.18274	485.43661	1720.72791	1200.91028	468.56476	1772.59741	1379.16785	362.74512	1777.83276	1168.17139	2.28712	1956.86731	1151.38306	300.11728	1827.6012	1635.66333	279.48853	1809.77722	1352.62646	197.85498	1788.8678	925.31189	301.29425	1686.04553	601.11285	333.73981	1719.40759	1404.92432	54.59684	1835.60107	654.19928	28.23927	1700.77759	1574.66443	290.98947	1699.1925	1430.79907	213.87579	1758.37524	354.40085	47.24343	1633.19861	232.87405	65.57597	1712.85864	112.70466	57.92999	1683.71021	1581.65649	163.35568	1513.17041	261.34583	273.92087	1624.22229	1263.13367	286.31143	1591.45007	243.99527	111.54823	1394.39441	123.8075	217.74542	1839.396	1171.96301	181.59198	1345.53735	135.05327	181.40038	1509.98755	30.22674	180.60994	1647.43604	1107.42688	198.38388	1624.78369	1269.01758	-52.46805	1810.98987	1648.95154	147.92656	1640.81738	975.82629	105.652	1643.854	979.97375	275.40698	1794.71887	932.40399	84.23328	1682.27185	1130.37463	-75.94329	1780.02246	1101.28223	-20.3392	1862.80786	1122.09412	15.96091	1571.07202	1190.76245	-94.30293	NaN	NaN	NaN	1715.45313	1676.37988	220.6646	NaN	NaN	NaN	NaN	NaN	NaN	NaN	NaN	NaN	NaN	NaN	NaN	NaN	NaN	NaN
94	0.93	1969.51306	539.29132	64.20051	1695.51404	484.49588	298.9545	1856.26428	1096.19995	420.02747	1915.58215	1174.07422	318.66699	1947.88782	1116.59399	328.91425	1778.57092	1106.77771	483.90213	1769.30493	1208.64001	468.39633	1814.59619	1387.7583	361.42151	1809.32129	1176.88074	-0.69405	1997.33472	1172.32886	291.26141	1866.85486	1643.18823	278.59735	1847.67175	1360.58264	196.68155	1831.95886	931.62738	300.69299	1718.45642	608.61365	332.78741	1754.71375	1412.91943	55.75672	1880.67517	667.42871	29.09205	1739.79468	1582.6604	290.37064	1737.64551	1438.25781	214.73737	1822.18738	354.02014	49.35847	1708.52405	220.85092	69.72406	1797.93176	106.26999	65.50331	1722.53259	1589.80847	162.89514	1528.39978	275.07971	276.18121	1665.56628	1270.41016	290.00827	1665.87952	229.20543	115.29038	1407.19336	139.50598	222.40982	1878.60925	1180.34009	179.67232	1360.97241	152.88272	186.48935	1509.64636	30.06316	180.0793	1687.89929	1114.46008	201.22775	1656.7002	1279.60742	-49.82669	1849.93896	1656.66907	147.3049	1682.2605	984.40198	107.14106	1686.52148	985.84155	276.27426	1836.93945	942.75769	84.56557	1710.97473	1140.95007	-76.37778	1810.08545	1110.09058	-23.39566	1894.11279	1129.42957	11.49098	1600.00708	1202.61621	-90.81976	NaN	NaN	NaN	1754.48901	1684.24438	220.18886	NaN	NaN	NaN	NaN	NaN	NaN	NaN	NaN	NaN	NaN	NaN	NaN	NaN	NaN	NaN
95	0.94	2015.23193	553.49078	65.21519	1722.25	494.66556	299.18329	1903.18848	1108.6582	415.108	1956.3938	1190.78528	313.71631	1990.62708	1134.29968	321.25394	1828.07507	1115.36951	482.36996	1817.3916	1217.40356	467.58954	1856.34448	1396.91638	359.94257	1841.9231	1186.07312	-3.06412	2036.66357	1192.54077	283.40671	1906.15112	1650.99377	277.59512	1885.6886	1369.04211	195.42802	1875.56421	939.12408	300.44513	1752.28723	617.23468	331.746	1790.64856	1421.47168	56.79155	1925.38855	680.97888	30.20045	1779.14026	1591.14441	290.06918	1776.15967	1446.19299	215.52924	1884.89197	353.07172	52.29904	1784.33105	209.52365	74.85048	1881.54333	100.10184	74.62114	1761.10657	1598.39282	162.46913	1546.97278	290.34225	278.64288	1707.21704	1278.52344	294.05591	1741.15247	215.62767	120.35987	1425.91052	155.7151	227.63864	1917.84167	1189.39392	178.39085	1381.65259	171.22318	191.93544	1509.0907	29.7978	180.20203	1728.53992	1122.19275	204.34953	1689.69458	1290.6449	-47.14964	1888.79431	1664.7876	146.40286	1724.44531	993.37781	108.71667	1729.97437	992.40778	276.84229	1879.28333	953.66217	85.26296	1741.08875	1151.677	-76.23203	1841.68958	1119.37244	-25.87103	1926.00806	1137.26367	8.26067	1630.41113	1214.81091	-87.25378	NaN	NaN	NaN	1793.82764	1692.84973	219.43825	NaN	NaN	NaN	NaN	NaN	NaN	NaN	NaN	NaN	NaN	NaN	NaN	NaN	NaN	NaN
96	0.95	2059.26465	565.87469	65.98511	1751.45483	505.16434	299.03116	1949.09021	1121.26794	410.96362	1996.30115	1206.7572	309.55322	2032.20923	1151.14258	314.37238	1876.80676	1124.63123	481.50995	1864.78735	1226.72192	466.13797	1897.65674	1406.04822	358.42072	1875.5448	1195.64087	-4.81306	2075.17139	1211.49414	276.48138	1945.58398	1658.7937	276.6134	1923.90137	1377.63782	194.24237	1919.66846	947.58636	300.41736	1787.00415	626.24084	330.98898	1827.21265	1430.13513	57.75922	1969.89185	694.3421	30.9858	1818.26953	1599.9812	289.32919	1814.78137	1454.26721	216.18457	1946.79407	351.46506	55.85789	1860.53247	198.95801	81.57687	1964.18481	94.25985	86.01003	1800.05933	1607.56555	161.513	1569.87097	305.08411	281.72299	1748.90613	1286.66626	297.32407	1816.71338	203.54016	126.43445	1448.88306	169.01512	232.93512	1956.77966	1198.3313	177.28775	1407.78662	189.62103	197.731	1508.26428	29.83008	180.75851	1769.16418	1130.16748	207.85219	1723.65112	1301.69336	-44.50503	1928.08154	1672.81274	145.60423	1767.48511	1002.58966	110.23585	1774.31128	999.23132	276.77805	1921.92004	964.82141	85.93638	1772.76135	1162.33911	-75.90842	1873.99951	1128.95239	-27.58893	1959.37354	1145.71289	5.24593	1662.11475	1226.63892	-83.71794	NaN	NaN	NaN	1833.48401	1701.59241	218.74242	NaN	NaN	NaN	NaN	NaN	NaN	NaN	NaN	NaN	NaN	NaN	NaN	NaN	NaN	NaN
97	0.96	2102.03271	575.97797	66.1526	1781.87561	514.95319	298.65634	1993.83264	1133.36804	407.41769	2035.81189	1221.72888	306.21478	2072.91089	1166.81702	308.4906	1924.33142	1133.80981	480.83157	1911.09546	1236.28247	464.57193	1938.58875	1415.08093	356.60757	1909.95093	1204.82019	-5.83138	2113.18481	1228.90405	270.44385	1984.99158	1665.74121	275.43253	1962.03003	1385.83667	193.14314	1963.99756	956.3584	300.10818	1822.22156	634.75098	330.47452	1864.1958	1438.20764	58.57605	2013.58081	706.59387	31.56781	1857.2428	1608.50525	288.58286	1853.63269	1461.91589	216.58456	2007.74976	349.14133	59.67774	1936.3291	189.35168	88.51734	2045.78711	89.26984	98.91219	1838.92078	1616.30225	160.67763	1596.43604	318.60382	286.13794	1790.70972	1294.45374	300.06589	1892.27209	192.79735	132.91571	1473.60339	181.5554	237.93758	1996.51831	1207.31494	176.08057	1436.1709	207.65605	203.66975	1513.57068	35.45844	181.66936	1810.11035	1138.05872	211.3566	1758.38782	1312.151	-41.9544	1967.33154	1680.00354	144.84019	1810.86157	1011.94861	111.89587	1819.17139	1005.86224	277.06433	1964.5166	975.4342	86.59659	1805.54919	1172.56177	-75.22003	1907.69885	1138.47827	-29.11305	1993.56421	1154.37012	2.88219	1695.08594	1237.6593	-80.48176	NaN	NaN	NaN	1873.41272	1710.09106	217.96065	NaN	NaN	NaN	NaN	NaN	NaN	NaN	NaN	NaN	NaN	NaN	NaN	NaN	NaN	NaN
98	0.97	2143.23218	583.62476	65.82634	1813.99353	524.03058	299.91666	2037.63318	1144.55835	404.54614	2074.98706	1235.29028	303.68262	2112.96216	1181.00659	303.60437	1970.69324	1142.55615	480.40509	1956.31726	1245.8075	463.60532	1979.14722	1423.3175	354.75665	1945.05627	1213.76355	-6.48317	2150.84888	1244.3302	265.22046	2024.55188	1671.46252	274.40875	1998.73975	1392.77795	191.65163	2008.06177	964.44019	299.15292	1858.56677	642.55566	330.4938	1901.91101	1445.44653	59.40271	2055.85791	716.56982	31.77626	1896.09375	1615.82397	287.54691	1892.63245	1468.99902	216.80019	2067.67139	346.21738	63.22636	2011.79797	180.63431	95.55216	2126.25513	85.2228	112.84595	1877.70313	1623.73181	159.78114	1624.83167	330.978	288.57278	1832.12769	1301.53833	302.1481	1967.39355	183.31647	139.52167	1500.36023	195.91249	241.63519	2036.64526	1215.58435	174.98389	1465.80005	225.34808	207.91798	1523.69116	44.04186	184.78384	1851.33875	1145.5116	214.72302	1794.01038	1321.83105	-39.83819	2006.32397	1685.8429	143.85439	1853.93799	1020.93604	113.76911	1863.95874	1012.30035	278.29315	2006.75525	984.80927	87.02293	1839.53015	1182.40808	-74.73004	1942.39026	1147.79248	-30.54549	2028.56506	1163.05737	0.88045	1729.15991	1247.50842	-77.88634	NaN	NaN	NaN	1913.40015	1717.44019	216.9518	NaN	NaN	NaN	NaN	NaN	NaN	NaN	NaN	NaN	NaN	NaN	NaN	NaN	NaN	NaN
99	0.98	2182.72485	588.63739	65.09756	1848.13611	531.55884	300.35324	2080.61304	1154.49963	402.52457	2114.06396	1247.19666	302.05414	2152.55981	1193.41077	299.70544	2016.18091	1150.28345	480.43344	2000.51196	1254.72314	463.18423	2019.37268	1430.55762	352.96155	1980.74988	1222.10974	-6.93211	2188.28857	1257.64063	260.75153	2063.9646	1676.05371	273.30945	2036.99548	1399.1615	190.73492	2051.34399	971.13593	297.69919	1895.9375	649.24963	330.80191	1940.19641	1451.59058	60.1922	2096.59863	723.82642	31.59422	1934.90808	1621.66699	286.29041	1931.64001	1474.56482	216.81595	2126.12427	342.65317	66.52251	2086.34692	173.12477	102.19414	2205.10986	82.67862	127.05525	1916.70398	1630.05164	158.32422	1655.05823	341.64767	289.44196	1873.57092	1307.44238	304.08621	2041.31262	175.12178	145.05872	1529.04834	210.60316	244.38498	2077.52026	1222.82104	173.8233	1497.64966	242.88127	210.03519	1537.52393	54.55162	189.86359	1892.69312	1152.15588	217.42705	1830.40869	1330.11072	-38.09428	2046.0144	1690.69507	142.62381	1896.48474	1028.69666	115.78664	1908.11499	1018.1817	280.58444	2048.49512	992.49683	87.09319	1874.4071	1191.28748	-74.38401	1977.91736	1156.49451	-31.90044	2064.37329	1171.46228	-0.97481	1763.93616	1256.00452	-75.71458	NaN	NaN	NaN	1953.26819	1723.03882	215.73495	NaN	NaN	NaN	NaN	NaN	NaN	NaN	NaN	NaN	NaN	NaN	NaN	NaN	NaN	NaN
100	0.99	2220.7793	590.98285	64.10767	1885.39233	536.87396	299.80515	2122.99829	1162.86377	401.30823	2153.07837	1257.146	301.15527	2191.78711	1203.66199	296.73865	2061.00073	1156.70959	481.33051	2043.88965	1262.40833	463.17932	2059.36206	1436.60803	351.44501	2017.06213	1229.59521	-7.18645	2225.61572	1268.66675	256.94391	2103.23682	1680.16455	272.06183	2077.8811	1405.1499	192.91687	2093.85352	976.17847	296.40869	1934.76233	654.19342	330.22946	1978.84265	1456.42432	60.98632	2136.2771	728.35284	31.34829	1973.79114	1626.40027	285.00006	1970.59302	1478.80554	216.63914	2182.82983	338.92657	69.48568	2159.68848	166.84903	108.37255	2282.45337	82.05247	141.22726	1955.77295	1634.74255	157.05185	1688.59119	350.65729	289.67365	1914.854	1311.8479	305.80112	2113.95801	167.98792	150.13402	1556.38916	227.11839	245.6972	2118.31934	1228.77307	173.18639	1527.25159	260.10913	209.35229	1557.51062	68.51662	198.01715	1934.08289	1157.88293	219.59781	1867.4635	1336.73865	-36.80927	2085.39355	1694.67651	141.45477	1938.4176	1034.76306	118.05343	1951.5426	1023.48065	283.05038	2089.68555	998.2514	87.03129	1910.12036	1199.12793	-74.20115	2014.16357	1164.37122	-33.10877	2100.81763	1179.19214	-2.51142	1799.45459	1263.11572	-74.20377	NaN	NaN	NaN	1992.82153	1727.47217	214.41936	NaN	NaN	NaN	NaN	NaN	NaN	NaN	NaN	NaN	NaN	NaN	NaN	NaN	NaN	NaN
